<svg width="100" height="70" xmlns="http://www.w3.org/2000/svg" viewBox="0 0 100 70"><g fill-rule="evenodd" transform="translate(0 -982)"><path fill="#ffa92d" d="m53.7 1e3.656-2.62-2.53-2.72.562 6.75z"/><path fill="#f58273" d="m74.1 1020s3.37 4.03 8.44 2.16c5.06-1.88 11.6-4.22 11.6-4.22s-1.97-1.03-4.12-2.72c-2.16-1.69-4.69-1.22-4.69-1.22s2.44-1.31 3.19-4.88c.75-3.56.844-8.25.844-8.25s-14.5 9.84-15.3 19.1z"/><path d="m84.8 992c.802-1.87 3.71-6.56-.421-5.95-2.6 1.68-2.9 5.16-3.52 7.94-.143 1.09-3.16-2.93-4.11.079-.593 1.67 2.34 3.51.538 5.59-.517 1.63-1.11 3.25-2.81 1.67-6.14-2.92-13.9-4.76-20.1-1.07-6.23 3.76-10.3 11.8-7.94 19 2.53 4.67 8.59 7.12 13.7 5.68-1.12 1.04.0138 3.82-1.49 1.64-2.31-1.14.602 3.17-1.45 1.29-2.62-.896-.566 2.57.91 2.71-1.61 4.03 6.66-1.4 3 2.28-2.06 2.78-4.67 5.3-5.87 8.6.358 1.69-2.61 5.71 1.07 4.64 3.23-.762 6.21-2.43 9.5-1.17 2.85.226 5.75.346 8.58-.11 2.1 2.4 5.36 3.31 7.31 5.85 2.63 1.62.965-3.78.985-5.22-.634-2.13-.789-3.62 1.82-3.73 3.74-1.29 4.4-5.6 6.84-8.23 1.97-2.9 5.56-3.58 8.36-5.31-1.31-2.27-5.93-1.17-8.43-.78-4.15.788-7.96 2.72-12 3.82-3.77 1.47-5.8-2.3-4.14-5.35.638-3.29 1.14-6.61 1.61-9.93 3.64-4.43 7.46-8.73 10.8-13.4 1.52-2.85 1.04-6.77-1.08-9.19-.509-.518-1.08-.975-1.7-1.35z" fill="#3bb566"/><path fill="#f58273" d="m59.4 1020s.656 2.62 2.53 4.12 5.06 2.06 5.06 2.06 1.12-5.72 2.53-8.91 3.19-7.78 3.19-7.78-6.37 2.81-8.91 5.16c-2.53 2.34-4.41 5.34-4.41 5.34z"/><path fill="#ffa92d" d="m70.1 1e3-.281-3.84 1.5-1.78.562 1.41 6.84-11.5-.281 5.72-4.12 5.72 1.87.938-1.69 1.78-1.03-1.41-1.03 1.78v2.25s-.75-.094-1.59-.281c-.844-.188-.75-.75-.75-.75z"/><path fill="#ffafa5" d="m29.6 998 1.6-1.15-.448-6.59 2.24 1.47.639 4.09 2.17-4.41 2.37 1.02-4.09 8.06z"/><path fill="#54d883" d="m23.6 996c-4.93-.0608-9.92 2.75-11.8 7.42-.985 2.88-1.97 5.77-2.95 8.65 1.64 1.36 3.43 2.58 4.99 4.03 1.67 2.07 4.57 2.07 6.69 3.41.767 1.75-.444 1.79-1.72 1.97-1.03 1.81 1.55 4.15-.27 6.08-1.12 2.28-2.43 4.45-3.77 6.6-2.33-.385-5.91-.826-5.97-3.83.0172-1.85-.915-5.38-2.79-2.54-2.53 2.75-4.01 7.34-1.53 10.6 1.93 2.56 5.03 5.06 8.43 4.22.28 2.44-1.32 4.7-.754 7.09 1.96 2.43 4.67-1.56 6.34-2.77 1.75-1.22 2.6-3.62 4.64-4.32 2.31-.463 4.98-.53 7.11.395 1.34 2.17 2.92 4.86 5.65 5.34 3.63-.144-.691-3.52-.351-5.4-.21-2.56-.666-5.08-1.09-7.61 1.3-.095-.271-2.17 1.17-1.81 2 .408 4.59-2.72 1.53-3.18-2.21-.568-4.21-1.08-6.48-1.71-2.84-1.04-.064-5.2-3.07-5.96-.926-2 1.24-2.88 2.79-3.14 3.65-1.48 7.72-3.47 9.26-7.35 1.09-3.67-.925-7.45-3.22-10.2-3.16-3.69-7.92-6.08-12.8-5.95z"/><path d="m28.2 1030 1.21-.576s.575 1.85 2.49 1.21c1.92-.639 3.01-1.41 3.01-1.41s1.6 3.07-.128 4.99-2.75 2.17-2.75 2.17c-1.77-1.57-3.25-3.47-3.84-6.39z" fill="#ffe5e1"/><path d="m20.5 1020s.64 1.28.32 2.37-1.98 2.37-1.98 2.37-.896 2.94-2.62 5.37c-.864 1.22-2 1.41-3.1 1.54-1.02-1.89-2.26-.822-3.56.294.234.311.485.579.754.804-.0147.019-.0318.032-.0462.052-1.41 1.92 3.13 2.56 3.13 2.56s.575-1.73 5.31-.96c4.73.767 6.33 3.9 12.4 4.35 6.07.448 6.33-3.13 6.33-3.13s-2.37-.895-6.27-5.37-3.39-9.08-3.39-9.08l-7.29-1.15zM8 1028.44c-.292.993-.115 1.86.915 2.52 1.51-1.98.325-2.24-.915-2.52z" fill="#ffafa5"/><path fill="#ffafa5" d="m14.9 1e3-3.45-5.05 5.44-4.48-1.85-2.62-5.56 4.73-.192-5.5-2.94.384s1.15 4.67.256 7.23c-.895 2.56-2.37 5.12-2.37 5.12l2.3 1.41 2.94-4.8 3.01 6.52s.831-.384 1.66-1.34c.831-.959.767-1.6.767-1.6z"/><path d="m11.9 1e3-2.08 1.81s-.904-2.71-1.09-4.16c-.181-1.45-.181-3.89-1.72-3.53-1.54.362-.995 6.96-.995 6.96s-1.45.723-2.35-2.08c-.904-2.8-2.89-3.07-2.44-.362.452 2.71 1.9 4.34 1.9 4.34s-1.36.904-1.36 1.99-.181 1.81-.181 1.81-.814 1.18-.452 2.44c.362 1.27 2.98 2.98 3.44 2.89.452-.09 1.09 1.54 2.62 2.17 1.54.633 3.17 4.43 3.17 4.43l2.53-.452 1.27-2.89-.452-2.8z" fill="#54d883"/><path fill="#ffe5e1" d="m18.9 1020s.767 1.21.703 2.37c-.064 1.15-1.09 2.56-1.09 2.56s-5.05 1.28-7.93.064c-2.88-1.21-6.2-4.99-4.09-7.16s6.84-4.73 7.93-2.81 1.02 5.95 2.24 5.75c1.21-.192 2.24-.767 2.24-.767z"/></g></svg>